<svg xmlns="http://www.w3.org/2000/svg" viewBox="0 0 128 128"><rect width="128" height="128" rx="28" fill="#1c1640"/><path d="M30 38 L46 70 L26 66 Z" fill="#306f70"/><path d="M98 38 L82 70 L102 66 Z" fill="#306f70"/><ellipse cx="64" cy="72" rx="34" ry="30" fill="#387d76"/><ellipse cx="64" cy="82" rx="22" ry="16" fill="#fff7dc"/><ellipse cx="52" cy="68" rx="5" ry="8" fill="#25575b"/><ellipse cx="76" cy="68" rx="5" ry="8" fill="#25575b"/><path d="M64 44 l3 6 6 1-5 4 1 6-5-3-5 3 1-6-5-4 6-1z" fill="#edc371"/><path d="M30 100 Q64 92 98 100 L104 112 Q64 104 24 112 Z" fill="#e98c73"/></svg>
